<svg xmlns="http://www.w3.org/2000/svg" version="1.1" xmlns:xlink="http://www.w3.org/1999/xlink" xmlns:svgjs="http://svgjs.com/svgjs" width="75" height="50"><svg fill="none" xmlns="http://www.w3.org/2000/svg" viewBox="0 0 75 50">
  <path d="M74.114 46.8643c.6177 1.0573-.1448 2.386-1.3693 2.386H58.966c-.563 0-1.0838-.2985-1.3684-.7842L30.8606 2.83497c-.6195-1.05726.143-2.387704 1.3683-2.387704h13.8557c.5637 0 1.085.299192 1.3694.785894l26.66 45.63114ZM37.01 34.4608c.3173.5342.2935 1.2045-.061 1.7149l-7.6671 11.0362c-.6608.9512-2.0853.8963-2.6708-.1031L.669333 2.83497C.0498449 1.77771.812295.447266 2.03768.447266H15.901c.5596 0 1.0777.294865 1.3635.775934L37.01 34.4608ZM12.9714 46.4234c.6272 1.0572-.1348 2.3951-1.364 2.3951H2.10124c-.87588 0-1.585933-.7101-1.585933-1.586V31.2078c0-1.6127 2.127143-2.1961 2.949923-.8091l9.50617 16.0247Z" fill="#000"></path>
</svg><style>@media (prefers-color-scheme: light) { :root { filter: none; } }
@media (prefers-color-scheme: dark) { :root { filter: invert(100%); } }
</style></svg>